<?xml version="1.0" encoding="utf-8"?>
<!-- Generator: Adobe Illustrator 16.0.3, SVG Export Plug-In . SVG Version: 6.00 Build 0)  -->
<!DOCTYPE svg PUBLIC "-//W3C//DTD SVG 1.1//EN" "http://www.w3.org/Graphics/SVG/1.1/DTD/svg11.dtd">
<svg version="1.1" id="Layer_1" xmlns="http://www.w3.org/2000/svg" xmlns:xlink="http://www.w3.org/1999/xlink" x="0px" y="0px"
	 width="500px" height="56px" viewBox="0 0 500 56" enable-background="new 0 0 500 56" xml:space="preserve">
<path id="chevron" fill="#E42325" d="M409,0h39.4l49,28l-49,28H409l49-28L409,0z"/>
<path id="text" fill="#FFFFFF" d="M123.4,7.8h9.3l-15.2,39.8h-8.3L94.2,7.8h9.4l8,23c0.8,2.2,1.6,5.1,2,6.5c0.4-1.5,1.2-4.2,1.9-6.5
	L123.4,7.8z M150.3,30.2h12.2v-7.7h-12.2v-6.9h21.1V7.8h-29.6v39.8h30.5v-7.8h-22V30.2z M191,7.8h-8.5v39.8h29.9v-7.8H191V7.8z
	 M254.8,27.7c0,12.8-7.7,20.6-18.8,20.6c-11.1,0-18.7-7.6-18.7-20.5c0-12.8,7.7-20.6,18.9-20.6C247.2,7.2,254.8,14.8,254.8,27.7z
	 M246.1,27.8c0-8.1-4.1-12.7-10.1-12.7s-9.9,4.5-9.9,12.6c0,8.1,4.1,12.7,10.1,12.7C242.1,40.3,246.1,35.9,246.1,27.8z M281.1,15.1
	c3.8,0,6.3,1.6,7.8,4.3l7.9-3.4c-2.7-5.2-7.5-8.8-15.6-8.8c-11.1,0-18.9,8.4-18.9,20.5c0,12.6,7.5,20.5,18.6,20.5
	c7.7,0,12.8-3.4,15.8-9l-7.2-4c-2.3,3.5-4.5,5.1-8.3,5.1c-6.4,0-10.1-5.5-10.1-12.6C271,20.3,274.7,15.1,281.1,15.1z M307,47.6h8.5
	V7.8H307V47.6z M325.4,15.7h12.2v31.9h8.5V15.7h12.2V7.8h-33V15.7z M394.7,7.8l-6,9.4c-1.6,2.5-3.8,6.3-4.6,7.8
	c-0.8-1.5-3.1-5.4-4.6-7.8l-6-9.4h-9.8L379.7,32v15.6h8.5V31.9l16.1-24H394.7z M404,16.8c-1.4-0.4-1.8-0.7-1.8-1.2
	c0-0.5,0.4-1,1.3-1c0.8,0,1.4,0.3,1.9,0.8l0.8-0.9c-0.7-0.7-1.5-1.1-2.6-1.1c-1.5,0-2.6,0.8-2.6,2.2c0,1.4,0.8,1.9,2.5,2.4
	c1.3,0.4,1.8,0.7,1.8,1.3c0,0.8-0.5,1.2-1.7,1.2c-0.8,0-1.5-0.4-2.1-0.9l-0.9,0.8c0.7,0.8,1.7,1.3,2.8,1.3c2,0,3-1,3-2.4
	C406.5,17.8,405.6,17.3,404,16.8z M413.8,13.5l-1.8,4.3c-0.2,0.5-0.4,1-0.5,1.4c-0.1-0.3-0.4-0.9-0.5-1.4l-1.8-4.3h-1.2v8h1.1v-4.2
	c0-0.5,0-1.2,0-1.4c0.1,0.2,0.3,0.8,0.5,1.3l1.9,4.5l1.9-4.5c0.2-0.5,0.4-1,0.5-1.3c0,0.2,0,0.9,0,1.4v4.2h1.2v-8H413.8z M18,42.1
	c-7.4,0-11.4-5.6-11.4-14.6c0-8.9,4-14.6,11.4-14.6c4.4,0,6.6,1.5,8.8,4.8l5.7-3.3C29.6,9.6,25,7,18,7C7,7,0,15.5,0,27.5
	C0,39.6,7,48,18,48c6.5,0,11.6-2.7,14.7-7.6l-5.3-3.3C25.2,40.4,22.5,42.1,18,42.1z M39.8,47.4H46V17.6h-6.3V47.4z M42.9,6.1
	c-2.3,0-4.1,1.7-4.1,3.8c0,2,1.8,3.8,4.1,3.8c2.2,0,4-1.7,4-3.8C46.9,7.9,45.1,6.1,42.9,6.1z M62.2,6L56,9v8.5h-4.6v5.3H56v17.2
	c0,5.3,2.7,7.9,7.2,7.9c2.5,0,4.6-0.6,6.1-1.4l0.7-5.2c-1.2,0.6-3,1.2-4.6,1.2c-2.3,0-3.3-0.8-3.3-3.6V22.9h7.9v-5.3h-7.9V6z
	 M77.4,47.4h6.3V17.6h-6.3V47.4z M80.5,6.1c-2.3,0-4.1,1.7-4.1,3.8c0,2,1.8,3.8,4.1,3.8c2.2,0,4-1.7,4-3.8
	C84.6,7.9,82.7,6.1,80.5,6.1z"/>
</svg>
